<svg width="20" height="20" viewBox="0 0 20 20" fill="none" xmlns="http://www.w3.org/2000/svg">
<path fill-rule="evenodd" clip-rule="evenodd" d="M16 3H18C18.5523 3 19 3.44772 19 4V18C19 18.5523 18.5523 19 18 19H1.99998C1.4477 19 0.999985 18.5523 0.999985 18V4C0.999985 3.44772 1.4477 3 1.99998 3H3.99998V2C3.99998 1.44772 4.4477 1 4.99998 1C5.55227 1 5.99998 1.44772 5.99998 2V3H14V2C14 1.44772 14.4477 1 15 1C15.5523 1 16 1.44772 16 2V3Z" stroke="#FF8822" stroke-width="2" stroke-linecap="round" stroke-linejoin="round"/>
<path fill-rule="evenodd" clip-rule="evenodd" d="M15 11H12C11.4477 11 11 11.4477 11 12V15C11 15.5523 11.4477 16 12 16H15C15.5523 16 16 15.5523 16 15V12C16 11.4477 15.5523 11 15 11Z" fill="#FF8822"/>
<path d="M19 3H0.999985V8H19V3Z" fill="#FF8822"/>
</svg>
