<svg width="18" height="18" viewBox="0 0 18 18" fill="none" xmlns="http://www.w3.org/2000/svg">
<path d="M4.55556 10C5.10784 10 5.55556 9.55228 5.55556 9C5.55556 8.44772 5.10784 8 4.55556 8C4.00327 8 3.55556 8.44772 3.55556 9C3.55556 9.55228 4.00327 10 4.55556 10Z" fill="#FF8822"/>
<path d="M4.55556 13.5555C5.10784 13.5555 5.55556 13.1078 5.55556 12.5555C5.55556 12.0033 5.10784 11.5555 4.55556 11.5555C4.00327 11.5555 3.55556 12.0033 3.55556 12.5555C3.55556 13.1078 4.00327 13.5555 4.55556 13.5555Z" fill="#FF8822"/>
<path d="M4.55556 6.44446C5.10784 6.44446 5.55556 5.99674 5.55556 5.44446C5.55556 4.89217 5.10784 4.44446 4.55556 4.44446C4.00327 4.44446 3.55556 4.89217 3.55556 5.44446C3.55556 5.99674 4.00327 6.44446 4.55556 6.44446Z" fill="#FF8822"/>
<path d="M13.4444 4.55554H8.11111C7.62019 4.55554 7.22222 4.95351 7.22222 5.44443C7.22222 5.93535 7.62019 6.33332 8.11111 6.33332H13.4444C13.9354 6.33332 14.3333 5.93535 14.3333 5.44443C14.3333 4.95351 13.9354 4.55554 13.4444 4.55554Z" fill="#FF8822"/>
<path d="M13.4444 8.11108H8.11111C7.62019 8.11108 7.22222 8.50905 7.22222 8.99997C7.22222 9.49089 7.62019 9.88886 8.11111 9.88886H13.4444C13.9354 9.88886 14.3333 9.49089 14.3333 8.99997C14.3333 8.50905 13.9354 8.11108 13.4444 8.11108Z" fill="#FF8822"/>
<path d="M13.4444 11.6666H8.11111C7.62019 11.6666 7.22222 12.0646 7.22222 12.5555C7.22222 13.0464 7.62019 13.4444 8.11111 13.4444H13.4444C13.9354 13.4444 14.3333 13.0464 14.3333 12.5555C14.3333 12.0646 13.9354 11.6666 13.4444 11.6666Z" fill="#FF8822"/>
<path d="M15 1H3C1.89543 1 1 1.89543 1 3V15C1 16.1046 1.89543 17 3 17H15C16.1046 17 17 16.1046 17 15V3C17 1.89543 16.1046 1 15 1Z" stroke="#FF8822" stroke-width="2" stroke-linecap="round" stroke-linejoin="round"/>
</svg>
