<svg width="18" height="14" viewBox="0 0 18 14" fill="none" xmlns="http://www.w3.org/2000/svg">
<path fill-rule="evenodd" clip-rule="evenodd" d="M11 12H0.995578C0.444837 12 0 11.5523 0 11C0 10.4439 0.445735 10 0.995578 10H11V12ZM17.001 12H15V10H17.001C17.5573 10 18 10.4477 18 11C18 11.5561 17.5528 12 17.001 12ZM0 3C0 2.44386 0.447248 2 0.998957 2H3V4H0.998957C0.44266 4 0 3.55228 0 3ZM7 4V2H17.0044C17.5552 2 18 2.44772 18 3C18 3.55614 17.5543 4 17.0044 4H7Z" fill="#FF8822"/>
<path fill-rule="evenodd" clip-rule="evenodd" d="M13 14C11.3431 14 10 12.6569 10 11C10 9.34315 11.3431 8 13 8C14.6569 8 16 9.34315 16 11C16 12.6569 14.6569 14 13 14ZM13 12C13.5523 12 14 11.5523 14 11C14 10.4477 13.5523 10 13 10C12.4477 10 12 10.4477 12 11C12 11.5523 12.4477 12 13 12Z" fill="#FF8822"/>
<path fill-rule="evenodd" clip-rule="evenodd" d="M5 6C3.34315 6 2 4.65685 2 3C2 1.34315 3.34315 0 5 0C6.65685 0 8 1.34315 8 3C8 4.65685 6.65685 6 5 6ZM5 4C5.55228 4 6 3.55228 6 3C6 2.44772 5.55228 2 5 2C4.44772 2 4 2.44772 4 3C4 3.55228 4.44772 4 5 4Z" fill="#FF8822"/>
</svg>
