<svg width="18" height="18" viewBox="0 0 18 18" fill="none" xmlns="http://www.w3.org/2000/svg">
<path fill-rule="evenodd" clip-rule="evenodd" d="M6.75355 13.5071C10.4834 13.5071 13.5071 10.4834 13.5071 6.75354C13.5071 3.02366 10.4834 0 6.75355 0C3.02367 0 0 3.02366 0 6.75354C0 10.4834 3.02367 13.5071 6.75355 13.5071ZM6.75355 11.5775C9.41775 11.5775 11.5775 9.41774 11.5775 6.75354C11.5775 4.08934 9.41775 1.92958 6.75355 1.92958C4.08935 1.92958 1.92959 4.08934 1.92959 6.75354C1.92959 9.41774 4.08935 11.5775 6.75355 11.5775Z" fill="#FF8822"/>
<path d="M13.6241 12.2597C13.2474 11.8829 12.6365 11.8829 12.2597 12.2597C11.883 12.6365 11.883 13.2474 12.2597 13.6241L16.353 17.7174C16.7298 18.0942 17.3406 18.0942 17.7174 17.7174C18.0942 17.3406 18.0942 16.7297 17.7174 16.353L13.6241 12.2597Z" fill="#FF8822"/>
</svg>
