<svg width="345" height="300" viewBox="0 0 345 300" fill="none" xmlns="http://www.w3.org/2000/svg">
<g clip-path="url(#clip0)">
<path opacity="0.1" d="M138.004 277.973C203.438 277.973 256.482 276.08 256.482 273.745C256.482 271.41 203.438 269.517 138.004 269.517C72.571 269.517 19.5269 271.41 19.5269 273.745C19.5269 276.08 72.571 277.973 138.004 277.973Z" fill="#FF8822"/>
<path opacity="0.1" d="M106.26 11.8718C117.936 1.45695 136.264 -0.666299 152.946 0.157374C205.346 2.76384 252.65 28.089 293.565 56.7382C308.374 67.1092 322.957 78.2855 332.575 92.5662C352.145 121.64 346.338 161.912 319.132 185.876C309.874 194.021 298.655 200.27 287.122 205.805C266.644 215.652 244.525 223.556 221.271 225.807C204.685 227.411 187.9 226.104 171.412 223.867C125.327 217.603 80.1296 203.773 42.2314 180.113C25.6117 169.735 9.94629 156.835 3.10458 140.046C-3.73713 123.258 0.632639 101.985 17.5998 92.05C24.6207 87.939 33.0129 86.083 41.2295 84.3404C53.3222 81.7779 65.6125 79.2483 76.5241 74.0317C87.7977 68.6467 101.145 58.2282 98.9142 46.305C96.519 33.5106 94.6102 22.2757 106.26 11.8718Z" fill="#FF8822"/>
<path opacity="0.1" d="M46.3452 300C63.8446 300 78.0306 297.138 78.0306 293.608C78.0306 290.078 63.8446 287.217 46.3452 287.217C28.8458 287.217 14.6598 290.078 14.6598 293.608C14.6598 297.138 28.8458 300 46.3452 300Z" fill="#FF8822"/>
<path opacity="0.1" d="M313.311 279.723C330.81 279.723 344.996 278.466 344.996 276.915C344.996 275.365 330.81 274.107 313.311 274.107C295.812 274.107 281.625 275.365 281.625 276.915C281.625 278.466 295.812 279.723 313.311 279.723Z" fill="#FF8822"/>
<path d="M187.776 58.6455H93.8825V79.413H187.776V58.6455Z" fill="#464A5F"/>
<path opacity="0.1" d="M187.776 58.6455H93.8825V59.1841H187.776V58.6455Z" fill="black"/>
<path d="M192.764 12.6553H89.3043V58.6419H192.764V12.6553Z" fill="#65617D"/>
<path d="M50.8649 12.6553H90.9205V109.893H43.7709V19.7681C43.7709 17.8846 44.5183 16.0782 45.8487 14.7464C47.1791 13.4145 48.9835 12.6663 50.8649 12.6663V12.6553Z" fill="#65617D"/>
<path opacity="0.1" d="M84.9235 18.7908H50.8429V104.833H84.9235V18.7908Z" fill="black"/>
<path d="M84.386 18.2527H50.3054V104.295H84.386V18.2527Z" fill="#D1D9EC"/>
<path opacity="0.1" d="M84.386 103.387C86.3025 103.387 87.8562 101.832 87.8562 99.9133C87.8562 97.9946 86.3025 96.4392 84.386 96.4392C82.4694 96.4392 80.9158 97.9946 80.9158 99.9133C80.9158 101.832 82.4694 103.387 84.386 103.387Z" fill="black"/>
<path d="M84.386 102.846C86.3025 102.846 87.8562 101.29 87.8562 99.3715C87.8562 97.4529 86.3025 95.8975 84.386 95.8975C82.4694 95.8975 80.9158 97.4529 80.9158 99.3715C80.9158 101.29 82.4694 102.846 84.386 102.846Z" fill="#464A5F"/>
<path d="M190.204 12.6553H229.898C230.878 12.6558 231.848 12.8496 232.754 13.2258C233.659 13.602 234.481 14.1532 235.174 14.8478C235.866 15.5423 236.415 16.3667 236.789 17.2738C237.163 18.1809 237.355 19.1529 237.354 20.1342V109.893H190.204V12.6553Z" fill="#65617D"/>
<path opacity="0.1" d="M231.357 18.7908H197.276V104.833H231.357V18.7908Z" fill="black"/>
<path d="M230.819 18.2527H196.739V104.295H230.819V18.2527Z" fill="#D1D9EC"/>
<path opacity="0.1" d="M230.823 103.387C232.739 103.387 234.293 101.832 234.293 99.9133C234.293 97.9946 232.739 96.4392 230.823 96.4392C228.906 96.4392 227.353 97.9946 227.353 99.9133C227.353 101.832 228.906 103.387 230.823 103.387Z" fill="black"/>
<path d="M230.823 102.846C232.739 102.846 234.293 101.29 234.293 99.3715C234.293 97.4529 232.739 95.8975 230.823 95.8975C228.906 95.8975 227.353 97.4529 227.353 99.3715C227.353 101.29 228.906 102.846 230.823 102.846Z" fill="#464A5F"/>
<path opacity="0.1" d="M134.465 18.7908H97.6562V55.6401H134.465V18.7908Z" fill="black"/>
<path d="M133.927 18.2527H97.1187V55.102H133.927V18.2527Z" fill="#D1D9EC"/>
<path opacity="0.1" d="M133.927 57.8695C135.155 57.8695 136.15 56.873 136.15 55.6437C136.15 54.4145 135.155 53.418 133.927 53.418C132.699 53.418 131.704 54.4145 131.704 55.6437C131.704 56.873 132.699 57.8695 133.927 57.8695Z" fill="black"/>
<path d="M133.927 57.3314C135.155 57.3314 136.15 56.3349 136.15 55.1056C136.15 53.8764 135.155 52.8799 133.927 52.8799C132.699 52.8799 131.704 53.8764 131.704 55.1056C131.704 56.3349 132.699 57.3314 133.927 57.3314Z" fill="#464A5F"/>
<path opacity="0.1" d="M145.987 55.6436L182.795 55.6436V18.7943L145.987 18.7943V55.6436Z" fill="black"/>
<path d="M146.525 55.1055L183.333 55.1055V18.2562L146.525 18.2562V55.1055Z" fill="#D1D9EC"/>
<path opacity="0.1" d="M146.525 57.8695C147.752 57.8695 148.748 56.873 148.748 55.6437C148.748 54.4145 147.752 53.418 146.525 53.418C145.297 53.418 144.301 54.4145 144.301 55.6437C144.301 56.873 145.297 57.8695 146.525 57.8695Z" fill="black"/>
<path d="M146.525 57.3314C147.752 57.3314 148.748 56.3349 148.748 55.1056C148.748 53.8764 147.752 52.8799 146.525 52.8799C145.297 52.8799 144.301 53.8764 144.301 55.1056C144.301 56.3349 145.297 57.3314 146.525 57.3314Z" fill="#464A5F"/>
<path opacity="0.1" d="M141.032 12.6553H139.551V58.6419H141.032V12.6553Z" fill="black"/>
<path opacity="0.1" d="M103.317 76.1768H97.1187V78.0657H103.317V76.1768Z" fill="black"/>
<path d="M103.317 75.635H97.1187V77.524H103.317V75.635Z" fill="#53526B"/>
<path opacity="0.1" d="M175.116 73.8816H142.652V78.0622H175.116V73.8816Z" fill="black"/>
<path d="M175.116 73.3435H142.652V77.5241H175.116V73.3435Z" fill="#53526B"/>
<path opacity="0.1" d="M161.195 76.7809C161.642 76.7809 162.003 76.4187 162.003 75.9719C162.003 75.525 161.642 75.1628 161.195 75.1628C160.749 75.1628 160.387 75.525 160.387 75.9719C160.387 76.4187 160.749 76.7809 161.195 76.7809Z" fill="black"/>
<path d="M161.195 76.2428C161.642 76.2428 162.003 75.8806 162.003 75.4338C162.003 74.987 161.642 74.6248 161.195 74.6248C160.749 74.6248 160.387 74.987 160.387 75.4338C160.387 75.8806 160.749 76.2428 161.195 76.2428Z" fill="#B65256"/>
<path opacity="0.1" d="M165.821 76.7809C166.267 76.7809 166.629 76.4187 166.629 75.9719C166.629 75.525 166.267 75.1628 165.821 75.1628C165.375 75.1628 165.013 75.525 165.013 75.9719C165.013 76.4187 165.375 76.7809 165.821 76.7809Z" fill="black"/>
<path d="M165.821 76.2428C166.267 76.2428 166.629 75.8806 166.629 75.4338C166.629 74.987 166.267 74.6248 165.821 74.6248C165.375 74.6248 165.013 74.987 165.013 75.4338C165.013 75.8806 165.375 76.2428 165.821 76.2428Z" fill="#FFD77C"/>
<path d="M248.064 172.173H33.064V263.879H248.064V172.173Z" fill="#65617D"/>
<path opacity="0.1" d="M248.064 172.173H33.064V174.062H248.064V172.173Z" fill="black"/>
<path d="M250.895 168.666H30.2337V173.52H250.895V168.666Z" fill="#65617D"/>
<path opacity="0.1" d="M250.895 168.666H30.2337V169.476H250.895V168.666Z" fill="black"/>
<path d="M254.979 167.319H26.1455V168.937H254.979V167.319Z" fill="#65617D"/>
<path opacity="0.1" d="M87.081 175.409H39.9313V189.976H87.081V175.409Z" fill="black"/>
<path d="M87.6222 174.871H40.4725V189.438H87.6222V174.871Z" fill="#D1D9EC"/>
<path opacity="0.1" d="M87.081 196.583H39.9313V226.118H87.081V196.583Z" fill="black"/>
<path d="M87.6222 196.042H40.4725V225.577H87.6222V196.042Z" fill="#D1D9EC"/>
<path opacity="0.1" d="M87.081 230.566H39.9313V260.101H87.081V230.566Z" fill="black"/>
<path d="M87.6222 230.028H40.4725V259.563H87.6222V230.028Z" fill="#D1D9EC"/>
<path opacity="0.1" d="M70.2418 181.343H56.7705V184.041H70.2418V181.343Z" fill="black"/>
<path d="M70.2418 180.805H56.7705V183.503H70.2418V180.805Z" fill="#464A5F"/>
<path opacity="0.1" d="M245.775 175.409H198.625V189.976H245.775V175.409Z" fill="black"/>
<path d="M246.313 174.871H199.163V189.438H246.313V174.871Z" fill="#D1D9EC"/>
<path d="M246.313 194.292H199.163V257.678H246.313V194.292Z" fill="#D1D9EC"/>
<path d="M228.936 180.805H215.465V183.503H228.936V180.805Z" fill="#464A5F"/>
<path opacity="0.1" d="M70.2418 210.608H56.7705V213.306H70.2418V210.608Z" fill="black"/>
<path d="M70.2418 210.07H56.7705V212.768H70.2418V210.07Z" fill="#464A5F"/>
<path opacity="0.1" d="M70.2418 241.896H56.7705V244.594H70.2418V241.896Z" fill="black"/>
<path d="M70.2418 241.358H56.7705V244.056H70.2418V241.358Z" fill="#464A5F"/>
<path opacity="0.1" d="M240.451 200.965H206.1V252.077H240.451V200.965Z" fill="black"/>
<path opacity="0.3" d="M239.913 200.427H205.562V251.539H239.913V200.427Z" fill="#FF8822"/>
<path opacity="0.1" d="M250.895 262.975H30.2337V272.145H250.895V262.975Z" fill="black"/>
<path d="M250.895 263.341H30.2337V272.511H250.895V263.341Z" fill="#65617D"/>
<path d="M195.122 179.612H91.6629V246.37H195.122V179.612Z" fill="#464A5F"/>
<path opacity="0.1" d="M92.8732 185.008C92.8732 185.008 150.935 190.942 193.502 185.275V190.536C193.502 190.536 149.987 195.932 92.8732 189.591V185.008Z" fill="black"/>
<path d="M92.8732 184.466C92.8732 184.466 150.935 190.4 193.502 184.737V189.998C193.502 189.998 149.987 195.39 92.8732 189.053V184.466Z" fill="#D1D9EC"/>
<path opacity="0.3" d="M183.468 197.279H103.313V235.446H183.468V197.279Z" fill="#FF8822"/>
<path opacity="0.1" d="M195.122 179.612H91.6629V181.636H195.122V179.612Z" fill="black"/>
<path d="M196.739 165.723H90.0466V181.098H196.739V165.723Z" fill="#464A5F"/>
<path opacity="0.1" d="M98.8008 176.643C100.958 176.643 102.706 174.893 102.706 172.733C102.706 170.574 100.958 168.824 98.8008 168.824C96.6439 168.824 94.8954 170.574 94.8954 172.733C94.8954 174.893 96.6439 176.643 98.8008 176.643Z" fill="black"/>
<path d="M98.8008 176.105C100.958 176.105 102.706 174.355 102.706 172.195C102.706 170.036 100.958 168.286 98.8008 168.286C96.6439 168.286 94.8954 170.036 94.8954 172.195C94.8954 174.355 96.6439 176.105 98.8008 176.105Z" fill="#D1D9EC"/>
<path opacity="0.1" d="M108.367 176.643C110.524 176.643 112.272 174.893 112.272 172.733C112.272 170.574 110.524 168.824 108.367 168.824C106.21 168.824 104.461 170.574 104.461 172.733C104.461 174.893 106.21 176.643 108.367 176.643Z" fill="black"/>
<path d="M108.367 176.105C110.524 176.105 112.272 174.355 112.272 172.195C112.272 170.036 110.524 168.286 108.367 168.286C106.21 168.286 104.461 170.036 104.461 172.195C104.461 174.355 106.21 176.105 108.367 176.105Z" fill="#D1D9EC"/>
<path opacity="0.1" d="M178.685 176.643C180.842 176.643 182.591 174.893 182.591 172.733C182.591 170.574 180.842 168.824 178.685 168.824C176.529 168.824 174.78 170.574 174.78 172.733C174.78 174.893 176.529 176.643 178.685 176.643Z" fill="black"/>
<path d="M178.685 176.105C180.842 176.105 182.591 174.355 182.591 172.195C182.591 170.036 180.842 168.286 178.685 168.286C176.529 168.286 174.78 170.036 174.78 172.195C174.78 174.355 176.529 176.105 178.685 176.105Z" fill="#D1D9EC"/>
<path opacity="0.1" d="M188.251 176.643C190.408 176.643 192.157 174.893 192.157 172.733C192.157 170.574 190.408 168.824 188.251 168.824C186.094 168.824 184.346 170.574 184.346 172.733C184.346 174.893 186.094 176.643 188.251 176.643Z" fill="black"/>
<path d="M188.251 176.105C190.408 176.105 192.157 174.355 192.157 172.195C192.157 170.036 190.408 168.286 188.251 168.286C186.094 168.286 184.346 170.036 184.346 172.195C184.346 174.355 186.094 176.105 188.251 176.105Z" fill="#D1D9EC"/>
<path opacity="0.1" d="M157.809 168.417H128.036V177.723H157.809V168.417Z" fill="black"/>
<path d="M157.403 167.879H128.574V177.185H157.403V167.879Z" fill="#53526B"/>
<path opacity="0.1" d="M99.8795 167.44H98.8008V176.947H99.8795V167.44Z" fill="black"/>
<path d="M99.342 167.44H98.2632V176.947H99.342V167.44Z" fill="#53526B"/>
<path opacity="0.1" d="M189.33 167.44H188.251V176.947H189.33V167.44Z" fill="black"/>
<path d="M188.792 167.44H187.714V176.947H188.792V167.44Z" fill="#53526B"/>
<path opacity="0.1" d="M182.428 169.756L181.665 168.992L174.95 175.715L175.712 176.478L182.428 169.756Z" fill="black"/>
<path d="M182.426 169.215L181.663 168.451L174.948 175.174L175.711 175.937L182.426 169.215Z" fill="#53526B"/>
<path opacity="0.1" d="M113.113 173.276V172.195H103.617V173.276H113.113Z" fill="black"/>
<path d="M113.117 172.734V171.654H103.62V172.734H113.117Z" fill="#53526B"/>
<path opacity="0.1" d="M195.122 244.792H91.6629V246.366H195.122V244.792Z" fill="black"/>
<path d="M196.739 245.334H90.0466V272.8H196.739V245.334Z" fill="#464A5F"/>
<path d="M85.3221 142.14C84.8065 141.137 82.0786 134.925 82.0786 134.925L77.5114 123.071C77.5114 123.071 74.2679 118.074 74.2679 117.144C74.2679 116.215 68.3696 112.503 68.3696 112.503C68.3696 112.503 63.5793 111.075 63.21 110.932C62.8406 110.789 57.1654 108.908 57.1654 108.908C57.1654 108.908 54.9312 105.979 54.6057 106.737L54.5728 106.682C54.1155 105.827 53.8263 104.893 53.7208 103.929C53.7208 103.845 53.6952 103.753 53.6842 103.665C55.1567 102.667 56.3636 101.324 57.2002 99.7525C58.0369 98.1813 58.4781 96.4295 58.4855 94.649C58.489 94.1842 58.4634 93.7195 58.4087 93.2579C58.4481 93.2324 58.4897 93.2103 58.533 93.192C58.6244 93.1518 58.6025 93.1188 58.533 93.0859L58.6025 93.0529C58.7268 92.998 58.6464 92.9577 58.5257 92.9101C58.6939 92.8369 58.4818 92.7893 58.3136 92.7125C58.3136 92.6649 58.2953 92.6136 58.2844 92.566C58.3242 92.4731 58.3477 92.3741 58.3538 92.2732L58.3977 92.2951C58.4415 92.111 58.4415 91.9192 58.3977 91.735C58.3888 91.7727 58.3766 91.8094 58.3611 91.8449C58.354 91.6683 58.3143 91.4945 58.2441 91.3323C58.1585 91.2057 58.0537 91.0933 57.9333 90.9992L57.9041 90.9773L58.2185 87.7741C62.826 87.5544 63.6341 79.7204 62.5847 79.2701C61.5352 78.8198 62.5847 77.8863 62.5847 75.9974C62.5847 74.1084 59.1071 71.9998 59.1071 71.9998C59.1071 71.9998 57.6444 72.732 55.3882 69.0932C53.132 65.4544 44.7838 64.876 44.228 65.8205C43.6721 66.7649 39.9423 68.0169 35.0862 69.3824C30.2301 70.7478 31.1259 76.5062 31.9341 77.7436C32.6007 78.7647 32.9913 79.9416 33.0677 81.1591C33.0677 81.8912 34.6035 84.937 34.6035 84.937C34.1171 85.9949 35.3348 91.7899 35.7005 93.4373C35.7005 93.4885 35.7005 93.5398 35.7005 93.591C35.6833 93.6171 35.6674 93.644 35.653 93.6716C35.5743 93.8432 35.5488 94.0345 35.5798 94.2207C35.5521 94.4232 35.5799 94.6295 35.6603 94.8174C35.6888 96.3688 36.0476 97.8963 36.7129 99.2977C37.3782 100.699 38.3346 101.942 39.5181 102.944C39.5181 103.043 39.5181 103.142 39.5364 103.244C39.6022 104.592 39.6424 106.173 39.573 107.703C39.573 107.78 39.573 107.857 39.573 107.934C39.3056 107.989 39.0547 108.106 38.8402 108.275C38.6257 108.444 38.4534 108.661 38.337 108.908C37.8799 109.79 35.2288 111.144 35.2288 111.144C35.2288 111.144 30.5848 111.36 30.1423 112.217C29.6998 113.074 22.9934 115.929 22.9934 115.929C22.9934 115.929 19.4537 118.001 19.9693 120.359C20.2399 121.589 19.483 123.503 18.7004 125.048C17.0592 124.427 15.3508 124 13.6103 123.778L17.3694 127.376L17.2451 127.57L15.1059 135.141C15.1059 135.141 14.3745 137.784 13.6432 138.435C12.9119 139.087 14.3051 144.933 14.3051 144.933C14.3051 144.933 13.4969 149.077 12.8424 150.146C12.1878 151.215 13.8736 153.862 13.8736 153.862L17.267 161.572L26.2296 163.849L27.7947 164.182C27.7654 164.365 27.7362 164.548 27.7033 164.734C27.2681 167.191 26.7013 169.45 26.0065 170.061C24.3135 171.562 24.3866 178.272 24.3866 178.272L24.4598 187.772C24.4598 187.772 25.0485 199.486 24.756 199.911C24.5695 200.182 24.9424 200.621 25.9261 201.009C25.9005 201.188 25.8712 201.375 25.8457 201.547C25.5677 203.491 25.4434 205.706 26.0797 206.672C26.356 207.202 26.5074 207.788 26.5221 208.385C26.5221 209.315 27.9227 211.245 27.9227 211.245C27.9227 211.245 26.8257 219.17 28.654 221.883C30.4824 224.595 32.0438 229.523 31.1589 230.669C31.1589 230.669 29.6121 234.025 30.3507 235.526C31.0894 237.027 30.3507 237.884 29.389 238.239C28.4273 238.594 28.5151 241.534 28.5151 241.534L30.2739 255.445C30.2739 255.445 31.232 258.304 30.4239 259.303C29.6157 260.302 29.6121 265.299 30.8663 267.016C32.1206 268.733 29.0855 271.903 29.0855 271.903C29.0855 271.903 27.2571 274.547 30.1825 275.403C30.1825 275.403 30.7712 275.546 29.6669 276.688C28.5626 277.83 28.3395 279.251 29.0782 279.759C29.2321 279.85 29.3922 279.929 29.5572 279.997C29.528 280.166 29.4987 280.342 29.4621 280.528C29.1806 282.018 28.6467 283.962 27.6777 284.899C25.7973 286.828 24.1748 288.992 22.8508 291.338C21.8379 293.26 21.3881 295.054 22.518 295.9C25.1728 297.899 28.5626 298.539 30.5628 297.756C32.563 296.972 35.3531 294.542 35.3531 294.542L36.0186 291.756C36.0186 291.756 35.5762 290.043 37.7848 289.398C39.9935 288.754 42.0595 286.47 42.0595 286.47V282.758C42.5963 282.453 43.114 282.115 43.61 281.747C43.61 281.747 44.6412 278.105 43.61 276.893C42.5788 275.681 42.2094 275.249 43.5368 274.462C44.8642 273.675 45.0434 271.966 44.0671 270.465C43.0907 268.964 41.5439 266.753 42.8713 263.608C44.1987 260.464 44.6997 250.825 44.6997 250.825C44.6997 250.825 44.0817 244.257 44.6997 242.771C45.3176 241.285 43.9903 238.272 43.9903 238.272C43.9903 238.272 44.4144 234.564 45.2445 232.832C46.0746 231.101 46.7072 222.047 46.7072 222.047C46.7072 222.047 48.1699 218.193 48.1699 215.692C48.1699 213.192 45.8881 207.196 49.2669 205.622C49.2669 205.622 50.7296 206.91 50.1518 212.05C50.1518 212.05 51.8449 218.05 51.8449 219.906C51.8449 221.762 53.0991 228.476 53.0991 228.476C53.0991 228.476 53.2454 230.617 53.761 231.404C54.2766 232.191 53.761 234.333 53.761 234.333C53.761 234.333 55.6771 236.119 55.1615 237.262C54.6459 238.404 55.2493 240.981 55.2493 240.981L54.7922 256.971C54.7922 256.971 53.4685 263.828 56.562 267.953C56.562 267.953 55.465 274.023 54.7922 274.451C54.1194 274.88 57.2276 278.595 57.2276 278.595C57.2276 278.595 56.3682 281 58.1125 281.118V285.093C58.7164 286.164 59.5462 287.089 60.5442 287.806C62.1641 288.948 61.5023 292.876 61.5023 292.876C61.5023 292.876 63.5646 297.877 69.0205 296.804C74.4763 295.731 75.2113 295.234 74.9151 293.447C74.8091 292.795 74.575 291.617 74.2349 290.313C73.6499 288.022 72.7503 285.254 71.6752 283.889C69.9822 281.736 68.5817 277.237 68.5817 277.237C68.5817 277.237 67.9161 275.736 68.5817 275.238C69.2472 274.741 68.9473 273.811 68.9473 273.811C68.9473 273.811 69.5909 271.955 69.0095 270.813C68.4281 269.67 70.1248 267.313 70.1248 267.313L69.6092 256.331L70.1248 240.333C70.1248 240.333 67.8394 237.69 68.7974 236.119C69.7555 234.549 67.7004 232.334 67.7004 232.334C67.7004 232.334 67.4773 232.265 68.0661 230.478C68.4185 229.426 68.365 228.279 67.9161 227.264C67.9161 227.264 66.6655 222.838 68.8742 219.481C68.8742 219.481 69.8323 215.052 70.1284 212.767C70.3332 211.179 71.5911 205.248 72.3627 201.785L72.487 201.221C73.584 201.28 74.4031 201.349 74.4031 201.349C74.4031 201.349 72.7101 189.565 74.4031 187.138C76.0962 184.711 73.0758 166.144 73.0758 166.144C73.0758 166.144 72.3444 162.9 71.9093 159.587C71.8837 159.401 71.8617 159.221 71.8361 159.024C73.2044 158.912 74.5781 158.882 75.9499 158.932C79.4896 159.144 82.9526 157.79 83.0257 156.432C83.0988 155.074 85.0186 149.718 85.3111 148.506C85.6037 147.295 85.834 143.14 85.3221 142.14Z" fill="url(#paint0_linear)"/>
<path d="M42.3191 279.899V286.51C42.3191 286.51 40.3299 288.787 38.198 289.439C36.0662 290.091 36.494 291.785 36.494 291.785L35.8577 294.557C35.8577 294.557 33.1554 296.973 31.2393 297.756C29.3232 298.54 26.0541 297.899 23.498 295.907C22.401 295.069 22.8435 293.279 23.8198 291.368C25.0894 289.041 26.6526 286.886 28.4712 284.958C29.4036 284.025 29.9339 282.088 30.1898 280.605C30.3946 279.507 30.4568 278.632 30.4568 278.632L42.3191 279.899Z" fill="#4C495A"/>
<path opacity="0.1" d="M42.3191 284.833V286.51C42.3191 286.51 40.3299 288.787 38.198 289.439C36.0662 290.09 36.494 291.785 36.494 291.785L35.8577 294.557C35.8577 294.557 33.1554 296.973 31.2393 297.756C29.3232 298.539 26.0541 297.899 23.498 295.907C22.401 295.069 22.8435 293.279 23.8198 291.368C23.7723 293.378 24.3683 295.633 27.2608 295.552C30.3872 295.446 33.3979 294.343 35.8541 292.404C35.8541 292.404 35.7809 287.715 39.05 286.646C40.2447 286.255 41.3542 285.64 42.3191 284.833Z" fill="black"/>
<path d="M68.3074 296.823C63.0527 297.888 61.0635 292.909 61.0635 292.909C61.0635 292.909 61.7034 288.999 60.142 287.861C59.1755 287.14 58.3759 286.218 57.798 285.159V278.621L64.19 274.071L67.6492 277.135L67.8832 277.34C67.8832 277.34 69.2326 281.821 70.8671 283.962C71.902 285.32 72.7686 288.077 73.3354 290.361C73.6608 291.672 73.8876 292.832 73.9899 293.48C74.2752 295.256 73.5658 295.754 68.3074 296.823Z" fill="#4C495A"/>
<path opacity="0.1" d="M68.3074 296.822C63.0527 297.888 61.0635 292.909 61.0635 292.909C61.0635 292.909 61.7034 288.999 60.142 287.861C59.1755 287.14 58.3759 286.218 57.798 285.159V282.626C58.8109 283.699 60.7234 285.774 61.1366 286.653C61.7034 287.861 61.7765 292.272 64.4021 293.052C67.0276 293.832 72.1433 294.545 72.5711 292.554C72.7468 291.797 73.003 291.06 73.3354 290.358C73.6608 291.668 73.8876 292.829 73.9899 293.477C74.2752 295.256 73.5658 295.754 68.3074 296.822Z" fill="black"/>
<path opacity="0.1" d="M30.4531 278.621L42.3192 279.898V283.395C40.9808 284.189 39.0647 285.031 37.986 284.163C36.3953 282.889 31.6672 281.271 30.1898 280.594C30.391 279.481 30.4531 278.621 30.4531 278.621Z" fill="black"/>
<path opacity="0.1" d="M67.8832 277.907C66.2487 277.34 63.3379 279.829 59.502 281.392C58.968 281.639 58.3861 281.764 57.798 281.758V278.606L64.19 274.056L67.6492 277.12C67.7025 277.389 67.7809 277.653 67.8832 277.907Z" fill="black"/>
<path d="M72.0738 199.629C72.0738 199.629 71.8471 200.672 71.529 202.192C70.7976 205.647 69.569 211.556 69.3752 213.137C69.0899 215.411 68.1685 219.818 68.1685 219.818C66.0366 223.16 67.2433 227.568 67.2433 227.568C67.6746 228.582 67.7252 229.719 67.3859 230.768C66.8191 232.547 67.0202 232.598 67.0202 232.598C67.0202 232.598 69.0095 234.794 68.0843 236.368C67.1592 237.943 69.3642 240.564 69.3642 240.564L68.8669 256.488L69.3788 267.456C69.3788 267.456 67.7443 269.802 68.3037 270.941C68.8632 272.079 68.2416 273.928 68.2416 273.928C68.2416 273.928 68.5268 274.851 67.8759 275.348C67.225 275.846 67.8759 277.34 67.8759 277.34C66.2414 276.772 63.3306 279.258 59.4947 280.825C55.6588 282.392 56.935 278.691 56.935 278.691C56.935 278.691 53.9511 274.993 54.5911 274.565C55.231 274.137 56.2951 268.096 56.2951 268.096C53.3112 263.974 54.5911 257.147 54.5911 257.147L55.0299 241.226C55.0299 241.226 54.4485 238.664 54.9458 237.525C55.4431 236.387 53.5964 234.597 53.5964 234.597C53.5964 234.597 54.0938 232.466 53.5964 231.668C53.0991 230.87 52.9565 228.739 52.9565 228.739C52.9565 228.739 51.7498 222.055 51.7498 220.206C51.7498 218.358 50.1153 212.387 50.1153 212.387C50.6857 207.262 49.2632 205.988 49.2632 205.988C45.9978 207.551 48.1991 213.522 48.1991 216.011C48.1991 218.5 46.7803 222.34 46.7803 222.34C46.7803 222.34 46.1404 231.368 45.3579 233.074C44.5753 234.78 44.1475 238.517 44.1475 238.517C44.1475 238.517 45.4274 241.505 44.8277 242.998C44.2279 244.492 44.8277 251.052 44.8277 251.052C44.8277 251.052 44.3596 260.65 43.0834 263.777C41.8072 266.903 43.2955 269.11 44.2353 270.604C45.175 272.098 44.9995 273.804 43.7197 274.583C42.4398 275.363 42.7982 275.795 43.7928 277.003C44.7874 278.211 43.7928 281.839 43.7928 281.839C43.7928 281.839 39.7448 285.038 37.9677 283.614C36.1905 282.19 30.5116 280.345 29.8022 279.847C29.0928 279.35 29.3049 277.926 30.369 276.791C31.4331 275.656 30.8663 275.509 30.8663 275.509C28.025 274.656 29.8022 272.024 29.8022 272.024C29.8022 272.024 32.7276 268.898 31.5062 267.192C30.2849 265.486 30.2995 260.508 31.0784 259.505C31.8573 258.502 30.9358 255.664 30.9358 255.664L29.2427 241.801C29.2427 241.801 29.1623 238.872 30.0838 238.528C31.0053 238.184 31.7183 237.32 31.0089 235.827C30.2995 234.333 31.7878 230.994 31.7878 230.994C32.6435 229.856 31.1515 224.951 29.3744 222.249C27.5972 219.547 28.665 211.655 28.665 211.655C28.665 211.655 27.3156 209.733 27.3156 208.81C27.3019 208.217 27.1557 207.634 26.8878 207.104C26.2771 206.127 26.3942 203.923 26.6611 201.979C26.9207 200.109 27.3156 198.494 27.3156 198.494L72.0738 199.629Z" fill="#5F5D7E"/>
<path d="M58.1527 119.07L44.1475 122.343C44.1475 122.343 37.2729 116.511 38.9769 113.392C39.562 112.32 39.8216 110.486 39.9094 108.545C39.9788 107.03 39.9386 105.445 39.8765 104.105C39.7741 102.168 39.6168 100.737 39.6168 100.737C39.6168 100.737 53.9621 92.632 53.4648 100.737C53.3634 102.088 53.3952 103.445 53.5599 104.789C53.662 105.748 53.9423 106.679 54.3863 107.535C55.1542 108.9 56.1013 108.922 56.1013 108.922L58.1527 119.07Z" fill="#FDC2CC"/>
<path opacity="0.1" d="M53.5599 104.778C51.538 106.231 49.084 106.954 46.5987 106.829C44.1134 106.705 41.7436 105.741 39.8765 104.094C39.7741 102.157 39.6169 100.726 39.6169 100.726C39.6169 100.726 53.9621 92.621 53.4648 100.726C53.3634 102.077 53.3952 103.434 53.5599 104.778Z" fill="black"/>
<path d="M47.146 106.558C53.2249 106.558 58.1527 101.625 58.1527 95.5389C58.1527 89.4534 53.2249 84.52 47.146 84.52C41.0672 84.52 36.1393 89.4534 36.1393 95.5389C36.1393 101.625 41.0672 106.558 47.146 106.558Z" fill="#FDC2CC"/>
<path opacity="0.1" d="M58.1527 119.07L44.1475 122.343C44.1475 122.343 37.2729 116.511 38.9769 113.392C39.562 112.32 39.8216 110.486 39.9094 108.546C40.2208 110.234 41.1296 111.753 42.4691 112.825C45.665 114.959 45.1677 117.584 45.1677 117.584L50.9197 117.372C50.5541 115.025 52.6969 113.747 53.4063 113.462C54.1157 113.176 53.772 111.899 53.772 111.899L54.3863 107.535C55.1542 108.901 56.1013 108.923 56.1013 108.923L58.1527 119.07Z" fill="black"/>
<path opacity="0.1" d="M72.0738 199.629C72.0738 199.629 71.8471 200.672 71.529 202.192C69.9822 202.111 67.9381 202.049 67.0312 202.257C65.4698 202.623 59.2168 202.755 59.2168 202.755L43.7343 203.304V202.828C41.954 202.846 40.1762 202.969 38.4101 203.195C35.7809 203.561 31.6635 203.052 29.0343 202.623C28.2252 202.508 27.4332 202.294 26.6757 201.987C26.9353 200.116 27.3303 198.501 27.3303 198.501L72.0738 199.629Z" fill="black"/>
<path d="M70.8671 154.477C70.6404 155.806 70.805 158.01 71.0902 160.181C71.518 163.475 72.2165 166.708 72.2165 166.708C72.2165 166.708 75.1418 185.195 73.4926 187.611C71.8435 190.027 73.4926 201.76 73.4926 201.76C73.4926 201.76 68.5926 201.335 67.0312 201.69C65.4698 202.045 59.2168 202.188 59.2168 202.188L43.7343 202.737V202.257C41.954 202.275 40.1762 202.398 38.4101 202.623C35.781 202.99 31.6635 202.481 29.0343 202.056C26.4051 201.631 25.341 200.775 25.6263 200.35C25.9115 199.925 25.341 188.27 25.341 188.27L25.2716 178.814C25.2716 178.814 25.1984 172.129 26.833 170.636C27.4985 170.028 28.047 167.78 28.4675 165.331C29.0672 161.791 29.389 157.838 29.389 157.838L18.5944 128.918L18.3823 128.346C18.3823 128.346 21.5051 123.511 21.0078 121.164C20.5105 118.817 23.9332 116.771 23.9332 116.771C23.9332 116.771 30.3946 113.927 30.8225 113.074C31.2503 112.221 35.7225 112.008 35.7225 112.008C35.7225 112.008 38.2821 110.658 38.7173 109.783C38.825 109.538 38.9893 109.322 39.1965 109.154C39.4038 108.985 39.6481 108.868 39.9094 108.813C40.2103 110.52 41.1198 112.06 42.4691 113.147C45.6651 115.278 45.1677 117.906 45.1677 117.906L50.9197 117.694C50.5541 115.347 52.6969 114.066 53.4063 113.784C54.1157 113.502 53.772 112.217 53.772 112.217L54.4375 107.616C54.7447 106.85 56.8948 109.779 56.8948 109.779C56.8948 109.779 62.3799 111.65 62.72 111.792C63.06 111.935 67.6931 113.356 67.6931 113.356C67.6931 113.356 73.372 117.053 73.372 117.975C73.372 118.898 76.4985 123.88 76.4985 123.88C76.4985 123.88 76.4619 124.078 76.3924 124.44C75.6501 128.317 71.3864 151.42 70.8671 154.477Z" fill="#FF8822"/>
<path d="M48.1407 142.96C48.1407 142.96 35.8541 139.691 34.6437 138.908C33.4334 138.124 26.3357 142.675 35.0094 148.862C35.0094 148.862 45.6139 151.058 48.4405 148.862C51.2671 146.665 48.1407 142.96 48.1407 142.96Z" fill="#FDC2CC"/>
<path opacity="0.1" d="M74.6994 123.478L76.1913 123.551L80.5794 135.353C80.5794 135.353 83.2085 141.54 83.7058 142.536C84.2032 143.531 83.9911 147.661 83.7058 148.862C83.4206 150.062 81.574 155.403 81.5118 156.754C81.4497 158.105 78.1038 159.456 74.692 159.244C71.2803 159.031 63.3306 160.096 63.3306 160.096C63.3306 160.096 54.8361 159.207 49.6216 161.872C49.6216 161.872 46.2867 154.975 46.6414 142.104C46.6414 142.104 52.536 141.738 54.0279 142.316C55.5199 142.895 62.7638 144.513 63.6853 143.667C64.6068 142.821 68.8047 145.234 68.8047 145.234C69.0186 144.765 69.1293 144.256 69.1293 143.74C69.1293 143.225 69.0186 142.715 68.8047 142.247C68.0953 140.541 66.8886 135.207 68.4391 133.501C69.9895 131.795 74.6994 123.478 74.6994 123.478Z" fill="black"/>
<path opacity="0.1" d="M71.0902 160.18C67.5651 160.418 63.6232 160.949 63.6232 160.949C63.6232 160.949 55.1286 160.06 49.9141 162.725C49.9141 162.725 46.5756 155.828 46.9303 142.957C46.9303 142.957 52.8249 142.59 54.3168 143.169C55.8088 143.747 63.0527 145.365 63.9779 144.52C64.903 143.674 69.0973 146.087 69.0973 146.087C69.3102 145.617 69.4204 145.108 69.4204 144.593C69.4204 144.078 69.3102 143.568 69.0973 143.099C68.3879 141.393 67.1811 136.06 68.7316 134.354C70.282 132.648 74.9809 124.327 74.9809 124.327L76.3668 124.393C75.6355 128.313 71.3827 151.417 70.8634 154.473C70.6404 155.806 70.8049 158.01 71.0902 160.18Z" fill="black"/>
<path d="M74.9846 123.763L76.4765 123.836L80.8646 135.639C80.8646 135.639 83.4938 141.822 83.9911 142.817C84.4884 143.813 84.2726 147.943 83.9911 149.147C83.7095 150.351 81.8592 155.689 81.797 157.04C81.7349 158.39 78.3853 159.741 74.9773 159.525C71.5692 159.309 63.6159 160.382 63.6159 160.382C63.6159 160.382 55.1176 159.492 49.9068 162.157C49.9068 162.157 46.5682 155.26 46.9229 142.389C46.9229 142.389 52.8176 142.023 54.3095 142.601C55.8015 143.18 63.0454 144.798 63.9706 143.952C64.8957 143.107 69.09 145.515 69.09 145.515C69.3031 145.047 69.4134 144.538 69.4134 144.024C69.4134 143.509 69.3031 143 69.09 142.532C68.3806 140.822 67.1738 135.492 68.7243 133.786C70.2747 132.08 74.9846 123.763 74.9846 123.763Z" fill="#FF8822"/>
<path d="M59.9978 149.878L61.7699 150.977L71.6466 135.011L69.8746 133.912L59.9978 149.878Z" fill="#DFE6F5"/>
<path d="M76.6941 132.863C78.44 130.041 78.2534 126.76 76.2772 125.535C74.3009 124.309 71.2835 125.604 69.5376 128.427C67.7916 131.249 67.9783 134.53 69.9545 135.755C71.9307 136.981 74.9481 135.686 76.6941 132.863Z" fill="#DFE6F5"/>
<path opacity="0.1" d="M75.6837 132.237C76.9363 130.212 76.802 127.858 75.3838 126.979C73.9656 126.099 71.8005 127.028 70.5479 129.053C69.2953 131.078 69.4296 133.432 70.8478 134.311C72.266 135.19 74.4311 134.262 75.6837 132.237Z" fill="black"/>
<path d="M54.9495 158.041L56.7215 159.139L62.8671 149.205L61.0951 148.106L54.9495 158.041Z" fill="#53526B"/>
<path d="M44.5132 158.746L48.8464 157.537C48.8464 157.537 70.2235 158.105 63.0491 149.29C63.0491 149.29 59.2863 145.662 51.4024 148.576C43.5186 151.49 41.3172 151.849 41.3172 151.849L44.5132 158.746Z" fill="#FDC2CC"/>
<path opacity="0.1" d="M41.3209 121.559C41.7914 121.559 42.1729 121.178 42.1729 120.706C42.1729 120.235 41.7914 119.854 41.3209 119.854C40.8503 119.854 40.4689 120.235 40.4689 120.706C40.4689 121.178 40.8503 121.559 41.3209 121.559Z" fill="black"/>
<path opacity="0.1" d="M55.9514 121.061C56.4219 121.061 56.8034 120.679 56.8034 120.208C56.8034 119.737 56.4219 119.355 55.9514 119.355C55.4808 119.355 55.0994 119.737 55.0994 120.208C55.0994 120.679 55.4808 121.061 55.9514 121.061Z" fill="black"/>
<path d="M41.3209 121.274C41.7914 121.274 42.1729 120.892 42.1729 120.421C42.1729 119.95 41.7914 119.568 41.3209 119.568C40.8503 119.568 40.4689 119.95 40.4689 120.421C40.4689 120.892 40.8503 121.274 41.3209 121.274Z" fill="white"/>
<path opacity="0.1" d="M42.5312 133.362C43.0018 133.362 43.3833 132.98 43.3833 132.509C43.3833 132.038 43.0018 131.656 42.5312 131.656C42.0607 131.656 41.6792 132.038 41.6792 132.509C41.6792 132.98 42.0607 133.362 42.5312 133.362Z" fill="black"/>
<path opacity="0.1" d="M56.3792 132.509C56.8498 132.509 57.2312 132.127 57.2312 131.656C57.2312 131.185 56.8498 130.803 56.3792 130.803C55.9087 130.803 55.5272 131.185 55.5272 131.656C55.5272 132.127 55.9087 132.509 56.3792 132.509Z" fill="black"/>
<path d="M42.5312 133.076C43.0018 133.076 43.3833 132.694 43.3833 132.223C43.3833 131.752 43.0018 131.37 42.5312 131.37C42.0607 131.37 41.6792 131.752 41.6792 132.223C41.6792 132.694 42.0607 133.076 42.5312 133.076Z" fill="white"/>
<path opacity="0.1" d="M56.0245 173.681C56.4951 173.681 56.8765 173.3 56.8765 172.829C56.8765 172.357 56.4951 171.976 56.0245 171.976C55.554 171.976 55.1725 172.357 55.1725 172.829C55.1725 173.3 55.554 173.681 56.0245 173.681Z" fill="black"/>
<path opacity="0.1" d="M44.8057 173.681C45.2763 173.681 45.6577 173.3 45.6577 172.829C45.6577 172.357 45.2763 171.976 44.8057 171.976C44.3352 171.976 43.9537 172.357 43.9537 172.829C43.9537 173.3 44.3352 173.681 44.8057 173.681Z" fill="black"/>
<path d="M56.0245 173.396C56.4951 173.396 56.8765 173.014 56.8765 172.543C56.8765 172.072 56.4951 171.69 56.0245 171.69C55.554 171.69 55.1725 172.072 55.1725 172.543C55.1725 173.014 55.554 173.396 56.0245 173.396Z" fill="white"/>
<path opacity="0.1" d="M45.6577 187.966C46.1283 187.966 46.5098 187.584 46.5098 187.113C46.5098 186.642 46.1283 186.26 45.6577 186.26C45.1872 186.26 44.8057 186.642 44.8057 187.113C44.8057 187.584 45.1872 187.966 45.6577 187.966Z" fill="black"/>
<path opacity="0.1" d="M56.3792 187.113C56.8498 187.113 57.2312 186.731 57.2312 186.26C57.2312 185.789 56.8498 185.407 56.3792 185.407C55.9087 185.407 55.5272 185.789 55.5272 186.26C55.5272 186.731 55.9087 187.113 56.3792 187.113Z" fill="black"/>
<path d="M45.6577 187.684C46.1283 187.684 46.5098 187.302 46.5098 186.831C46.5098 186.36 46.1283 185.978 45.6577 185.978C45.1872 185.978 44.8057 186.36 44.8057 186.831C44.8057 187.302 45.1872 187.684 45.6577 187.684Z" fill="white"/>
<path d="M44.8057 173.396C45.2763 173.396 45.6577 173.014 45.6577 172.543C45.6577 172.072 45.2763 171.69 44.8057 171.69C44.3352 171.69 43.9537 172.072 43.9537 172.543C43.9537 173.014 44.3352 173.396 44.8057 173.396Z" fill="white"/>
<path d="M56.3792 186.827C56.8498 186.827 57.2312 186.446 57.2312 185.975C57.2312 185.503 56.8498 185.122 56.3792 185.122C55.9087 185.122 55.5272 185.503 55.5272 185.975C55.5272 186.446 55.9087 186.827 56.3792 186.827Z" fill="white"/>
<path d="M55.9514 120.776C56.4219 120.776 56.8034 120.394 56.8034 119.923C56.8034 119.452 56.4219 119.07 55.9514 119.07C55.4808 119.07 55.0994 119.452 55.0994 119.923C55.0994 120.394 55.4808 120.776 55.9514 120.776Z" fill="white"/>
<path d="M56.3792 132.223C56.8498 132.223 57.2312 131.841 57.2312 131.37C57.2312 130.899 56.8498 130.517 56.3792 130.517C55.9087 130.517 55.5272 130.899 55.5272 131.37C55.5272 131.841 55.9087 132.223 56.3792 132.223Z" fill="white"/>
<path opacity="0.1" d="M57.6554 161.305C57.6554 161.305 57.7983 180.787 58.227 184.269C58.227 184.269 58.3809 162.224 57.6554 161.305Z" fill="black"/>
<path opacity="0.1" d="M61.2792 170.335C60.9867 170.335 67.1007 193.157 67.3859 194.793C67.6712 196.429 62.9833 170.335 61.2792 170.335Z" fill="black"/>
<path opacity="0.1" d="M66.1061 166.638C66.1061 166.851 69.5178 179.008 71.2255 179.649C72.9332 180.289 66.1061 166.638 66.1061 166.638Z" fill="black"/>
<path opacity="0.1" d="M79.5299 142.96C79.5299 142.96 72.2859 143.282 72.0738 144.329C71.8617 145.376 79.5299 142.96 79.5299 142.96Z" fill="black"/>
<path opacity="0.1" d="M66.746 235.662C66.746 235.662 61.5608 237.858 62.3579 238.005C63.1551 238.151 66.746 235.662 66.746 235.662Z" fill="black"/>
<path opacity="0.1" d="M56.0209 232.404C55.8197 231.95 59.5021 234.234 59.5021 234.538C59.5021 234.842 56.3061 233.045 56.0209 232.404Z" fill="black"/>
<path opacity="0.1" d="M60.8514 239.868C60.8514 239.868 64.8994 239.667 65.1846 241.227C65.4698 242.786 60.8514 239.868 60.8514 239.868Z" fill="black"/>
<path opacity="0.1" d="M31.733 239.861C31.733 239.861 36.121 239 36.4867 239.861C36.8524 240.722 31.733 239.861 31.733 239.861Z" fill="black"/>
<path opacity="0.1" d="M33.3675 266.676C33.3675 266.676 33.6564 270.3 32.5886 271.153C31.5209 272.006 33.3675 266.676 33.3675 266.676Z" fill="black"/>
<path opacity="0.1" d="M32.83 274.353C34.2195 274.496 41.533 273.214 41.4635 274.353C41.394 275.493 32.83 274.353 32.83 274.353Z" fill="black"/>
<path opacity="0.1" d="M66.3913 269.945C66.3913 269.945 63.8974 269.579 64.5044 271.246L66.3913 269.945Z" fill="black"/>
<path opacity="0.1" d="M20.0132 128.035H18.6639L16.6051 135.573C16.6051 135.573 15.8957 138.205 15.1863 138.845C14.4769 139.486 15.8226 145.314 15.8226 145.314C15.8226 145.314 15.0437 149.44 14.4038 150.505C13.7639 151.57 15.3984 154.202 15.3984 154.202L18.6639 161.89L27.3303 164.167C27.3303 164.167 42.6007 167.509 43.3101 168.007C44.0195 168.505 44.6595 167.791 45.1385 163.171C45.6175 158.551 46.9851 149.59 48.0639 149.165C48.0639 149.165 39.5401 150.088 38.8307 149.945C38.1213 149.802 34.7132 150.018 34.7132 150.018C34.7132 150.018 30.2374 149.733 29.528 150.161C28.8186 150.589 30.4495 148.096 30.4495 148.096C30.7485 146.955 30.7485 145.756 30.4495 144.615C29.9558 142.678 29.6742 120.919 20.0132 128.035Z" fill="black"/>
<path opacity="0.1" d="M47.7823 150C46.7182 150.425 45.3689 159.386 44.8569 164.006C44.345 168.626 43.7197 169.34 43.0286 168.842C42.4508 168.436 32.2742 166.155 28.4712 165.313C29.0709 161.773 29.3927 157.819 29.3927 157.819L18.5981 128.899H19.7353C29.3927 121.787 29.6779 143.542 30.1752 145.464C30.4742 146.606 30.4742 147.805 30.1752 148.946C30.1752 148.946 28.5407 151.435 29.2501 151.01C29.9595 150.586 34.4353 150.868 34.4353 150.868C34.4353 150.868 37.8433 150.655 38.5564 150.798C39.2695 150.941 47.7823 150 47.7823 150Z" fill="black"/>
<path d="M19.7316 128.314H18.3823L16.3199 135.851C16.3199 135.851 15.6105 138.48 14.9011 139.12C14.1917 139.761 15.541 145.607 15.541 145.607C15.541 145.607 14.7585 149.729 14.1186 150.798C13.4787 151.867 15.1132 154.492 15.1132 154.492L18.3823 162.18L27.0451 164.457C27.0451 164.457 42.3155 167.795 43.0249 168.293C43.7343 168.791 44.3742 168.081 44.8532 163.461C45.3323 158.841 46.6816 149.879 47.7786 149.455C47.7786 149.455 39.2585 150.377 38.5491 150.234C37.8397 150.092 34.428 150.308 34.428 150.308C34.428 150.308 29.9521 150.022 29.2427 150.447C28.5333 150.871 30.1679 148.382 30.1679 148.382C30.4671 147.241 30.4671 146.042 30.1679 144.901C29.6742 142.961 29.389 121.205 19.7316 128.314Z" fill="#FF8822"/>
<path opacity="0.1" d="M24.3464 154.052C24.3464 154.052 20.441 161.447 19.7316 160.594C19.0222 159.741 24.3464 154.052 24.3464 154.052Z" fill="black"/>
<path opacity="0.1" d="M20.2984 149.843C20.2984 149.843 16.6783 152.844 18.3823 153.624C20.0863 154.404 20.2984 149.843 20.2984 149.843Z" fill="black"/>
<path opacity="0.1" d="M23.7065 146.16C23.9917 146.233 28.9648 147.222 29.0343 147.65C29.1038 148.078 23.7065 146.16 23.7065 146.16Z" fill="black"/>
<path opacity="0.1" d="M58.1856 94.0744C58.0311 94.1286 57.8993 94.233 57.8111 94.3711C57.7229 94.5091 57.6835 94.6728 57.6993 94.8359C57.4104 95.0921 57.0009 94.7919 56.7668 94.4698C56.5328 94.1477 56.2585 93.7377 55.8965 93.7889C55.7249 93.8437 55.5585 93.9135 55.3992 93.9976C54.8324 94.1769 54.3534 93.5107 54.0353 92.925L52.3714 89.8462C51.2744 90.4942 49.9471 89.817 48.8464 89.147C47.7457 88.4771 46.433 87.7999 45.3177 88.4442C43.6831 89.3887 43.6246 92.5369 41.9315 93.313C41.3867 93.5656 40.7541 93.5107 40.2458 93.8548C39.7375 94.1989 39.4779 94.8542 39.2512 95.4802C39.1701 95.8386 38.975 96.161 38.6953 96.399C38.5186 96.4926 38.3212 96.5404 38.1212 96.5381C37.6239 96.6214 37.1129 96.5485 36.6586 96.3295C36.4207 96.179 36.2407 95.9524 36.1478 95.6866C36.0548 95.4208 36.0544 95.1313 36.1466 94.8652C36.1603 94.8359 36.1762 94.8078 36.1942 94.781C36.3755 94.5606 36.5382 94.3255 36.6805 94.0781C36.8524 93.6278 36.6074 93.1007 36.6805 92.6138C36.7683 91.7791 37.6532 91.3362 37.8031 90.5162C37.8653 90.194 37.8031 89.8499 37.858 89.5278C37.868 89.4845 37.8802 89.4417 37.8945 89.3996L37.3753 89.7657C37.9567 89.0885 38.2492 88.144 38.6734 87.3167C39.147 86.4139 39.7985 85.6166 40.5885 84.9729C41.3785 84.3292 42.2907 83.8526 43.2699 83.5717C45.1239 83.0336 47.0802 83.18 48.9488 83.6376C50.727 84.081 52.4309 84.7828 54.006 85.7206C54.5646 86.0253 55.0608 86.4326 55.4687 86.9213C55.8117 87.4278 56.1032 87.9674 56.339 88.532C56.8911 89.6742 58.3977 90.7285 57.1983 90.8932C56.2 91.025 57.1106 91.7242 57.6335 92.1965C57.7511 92.2902 57.8524 92.4028 57.9333 92.5296C58.0207 92.709 58.0608 92.9077 58.0499 93.1069C58.0391 93.3062 57.9775 93.4993 57.8711 93.6681C57.6444 93.8987 58.4635 93.95 58.1856 94.0744Z" fill="black"/>
<path d="M58.1857 93.7924C58.0312 93.8466 57.8993 93.951 57.8111 94.0891C57.7229 94.2271 57.6836 94.3908 57.6993 94.5539C57.4104 94.8101 57.0009 94.5063 56.7669 94.1878C56.5328 93.8693 56.2586 93.4556 55.8966 93.5069C55.725 93.5617 55.5585 93.6315 55.3992 93.7156C54.8324 93.8986 54.3534 93.2287 54.0353 92.643C53.4795 91.6179 52.9383 90.5893 52.3715 89.5679C51.2745 90.2122 49.9471 89.535 48.8464 88.8651C47.7457 88.1951 46.433 87.5179 45.3177 88.1622C43.6831 89.1067 43.6246 92.2549 41.9316 93.0347C41.3867 93.2836 40.7541 93.2287 40.2458 93.5728C39.7375 93.9169 39.4779 94.5722 39.2512 95.2018C39.1701 95.5592 38.975 95.8805 38.6954 96.117C38.5188 96.2117 38.3215 96.2608 38.1213 96.2598C37.6239 96.3414 37.1134 96.2686 36.6586 96.0511C36.4217 95.8997 36.2425 95.6731 36.1497 95.4076C36.0569 95.1421 36.0558 94.853 36.1466 94.5868C36.1603 94.5576 36.1762 94.5294 36.1942 94.5026C36.3368 94.2537 36.5598 94.078 36.6805 93.7998C36.8524 93.3495 36.6074 92.8223 36.6805 92.3355C36.7683 91.4971 37.6532 91.0578 37.8031 90.2342C37.8653 89.912 37.8031 89.5679 37.858 89.2458C37.868 89.2037 37.8802 89.1621 37.8945 89.1213L37.3753 89.4874C37.9567 88.8065 38.2492 87.862 38.6734 87.0383C39.147 86.1351 39.7984 85.3373 40.5884 84.693C41.3784 84.0488 42.2906 83.5714 43.2699 83.2897C45.1239 82.7516 47.0802 82.898 48.9488 83.3556C50.7278 83.7985 52.4319 84.5016 54.006 85.4422C54.5653 85.7444 55.0617 86.1507 55.4687 86.6393C55.8117 87.1458 56.1033 87.6854 56.339 88.25C56.8912 89.3959 58.3977 90.4465 57.1983 90.6112C56.2001 90.7467 57.1106 91.4459 57.6335 91.9181C57.7516 92.0099 57.853 92.1213 57.9333 92.2476C58.0207 92.427 58.0608 92.6257 58.05 92.8249C58.0391 93.0242 57.9775 93.2173 57.8712 93.3861C57.6445 93.624 58.4636 93.6643 58.1857 93.7924Z" fill="#865A61"/>
<path opacity="0.1" d="M57.6079 91.8891L57.4945 93.0861C57.4945 93.0861 45.5736 77.9599 36.2856 95.041C36.2856 95.041 36.2417 94.8323 36.1649 94.4809C36.3075 94.2319 36.5306 94.0562 36.6513 93.778C36.8231 93.3277 36.5781 92.8006 36.6513 92.3137C36.739 91.4754 37.6239 91.0361 37.7739 90.2124C37.836 89.8903 37.7739 89.5462 37.8287 89.224C37.8387 89.1819 37.8509 89.1404 37.8653 89.0996L37.346 89.4656C37.9275 88.7847 38.22 87.8403 38.6442 87.0166C39.1177 86.1134 39.7692 85.3156 40.5592 84.6713C41.3491 84.027 42.2613 83.5497 43.2407 83.268C45.0946 82.7298 47.0509 82.8763 48.9195 83.3339C50.6986 83.7768 52.4026 84.4799 53.9768 85.4205C54.536 85.7227 55.0325 86.129 55.4395 86.6176C55.7824 87.1241 56.074 87.6637 56.3098 88.2283C56.8619 89.3741 58.3685 90.4248 57.1691 90.5895C56.1744 90.7176 57.085 91.4278 57.6079 91.8891Z" fill="black"/>
<g opacity="0.1">
<path opacity="0.1" d="M57.9004 93.6241C57.8421 93.691 57.7997 93.7702 57.7763 93.8557C57.7529 93.9413 57.749 94.0311 57.7651 94.1183C57.4762 94.3746 57.0703 94.0708 56.8363 93.7523C56.6023 93.4338 56.3244 93.0201 55.966 93.0714C55.7942 93.1254 55.6277 93.1953 55.4687 93.28C54.8982 93.4631 54.4192 92.7931 54.1011 92.2074L52.4409 89.1287C51.3439 89.7767 50.0165 89.0994 48.9159 88.4295C47.8152 87.7596 46.4988 87.0824 45.3871 87.7267C43.7526 88.6711 43.6941 91.8194 42.001 92.5955C41.4525 92.8481 40.8199 92.7931 40.3153 93.1373C39.8106 93.4814 39.5437 94.1366 39.3206 94.7626C39.2381 95.1204 39.0433 95.4424 38.7648 95.6815C38.5884 95.7759 38.3908 95.8238 38.1907 95.8206C37.6937 95.9055 37.1826 95.8339 36.728 95.6156C36.4531 95.4315 36.2553 95.1527 36.1722 94.8322C36.1163 95.0872 36.1396 95.3533 36.239 95.5947C36.3383 95.8361 36.5089 96.0414 36.728 96.183C37.1828 96.4007 37.6933 96.4735 38.1907 96.3917C38.3904 96.3913 38.5871 96.3436 38.7648 96.2526C39.0425 96.0128 39.2371 95.6911 39.3206 95.3337C39.5437 94.7041 39.8143 94.0488 40.3153 93.7047C40.8162 93.3606 41.4525 93.4155 42.001 93.1665C43.6941 92.3905 43.7526 89.2422 45.3871 88.2977C46.4841 87.6498 47.8115 88.3307 48.9159 89.0006C50.0202 89.6705 51.3293 90.3441 52.4409 89.6998L54.1011 92.7748C54.4192 93.3606 54.8982 94.0305 55.4687 93.8474C55.6285 93.7654 55.7948 93.6968 55.966 93.6424C56.3317 93.5948 56.595 94.0085 56.8363 94.3197C57.0776 94.6308 57.4762 94.9493 57.7651 94.6858C57.7494 94.5227 57.7887 94.359 57.8769 94.2209C57.9651 94.0829 58.097 93.9785 58.2514 93.9243C58.4745 93.8365 58.0028 93.7815 57.9004 93.6241Z" fill="black"/>
<path opacity="0.1" d="M56.9716 90.7951C57.0583 90.7606 57.1494 90.7384 57.2422 90.7291C57.7687 90.6558 57.7724 90.4103 57.564 90.0623C57.4642 90.1153 57.3547 90.1477 57.2422 90.1575C56.6717 90.2345 56.7229 90.4983 56.9716 90.7951Z" fill="black"/>
<path opacity="0.1" d="M58.0616 93.178C58.102 92.9946 58.102 92.8045 58.0616 92.6211C58.036 92.7337 57.9874 92.8397 57.9188 92.9325C57.8235 93.0461 57.9334 93.1194 58.0616 93.178Z" fill="black"/>
<path opacity="0.1" d="M36.7328 92.3574C36.7311 92.3904 36.7311 92.4234 36.7328 92.4563C36.7204 92.7129 36.7388 92.97 36.7878 93.2221C36.815 92.9328 36.7964 92.641 36.7328 92.3574Z" fill="black"/>
<path opacity="0.1" d="M37.8881 88.8884C37.7517 89.1416 37.591 89.3809 37.4082 89.6029L37.8698 89.2878C37.8649 89.1544 37.871 89.0208 37.8881 88.8884Z" fill="black"/>
</g>
<path d="M36.3002 94.7555C36.3002 94.7555 34.5852 87.0678 35.1301 85.8525C35.1301 85.8525 33.6674 82.814 33.6674 82.0892C33.5928 80.8813 33.2155 79.7117 32.5704 78.6883C31.7915 77.4583 30.9358 71.7329 35.6091 70.3674C40.2824 69.002 43.8696 67.761 44.4144 66.8201C44.9593 65.8793 52.9858 66.4541 55.1688 70.0782C57.3519 73.7024 58.7524 72.9702 58.7524 72.9702C58.7524 72.9702 62.102 75.0715 62.102 76.9531C62.102 78.8348 61.0891 79.7756 62.102 80.2076C63.1149 80.6395 62.336 88.4589 57.8931 88.6749L57.5055 92.8006C57.5055 92.8006 45.5736 77.6743 36.3002 94.7555Z" fill="#FF8822"/>
<path opacity="0.1" d="M36.8121 71.8608C36.8121 71.8608 35.7809 77.9048 37.6642 79.9145L36.8121 71.8608Z" fill="black"/>
<path opacity="0.1" d="M41.639 70.4734C41.639 70.4734 39.0135 76.9456 39.6534 78.1903L41.639 70.4734Z" fill="black"/>
<path opacity="0.1" d="M43.9135 68.4126C43.9135 68.4126 42.1363 76.8324 42.9883 77.5133L43.9135 68.4126Z" fill="black"/>
<path opacity="0.1" d="M46.9668 70.6858C46.9668 70.6858 44.7728 76.0927 45.6541 76.8359L46.9668 70.6858Z" fill="black"/>
<path opacity="0.1" d="M51.1208 71.3262C51.1208 71.3262 48.5282 75.7191 49.0621 76.5171L51.1208 71.3262Z" fill="black"/>
<path opacity="0.1" d="M56.4487 75.6277C56.4487 75.6277 53.6769 76.3598 54.2547 77.264L56.4487 75.6277Z" fill="black"/>
<path opacity="0.1" d="M59.0779 80.2148C59.0779 80.2148 56.5913 81.4229 57.0521 82.0635L59.0779 80.2148Z" fill="black"/>
<path opacity="0.1" d="M35.1301 85.8522C35.1301 85.8522 51.0075 79.3982 57.8821 88.6747C57.8821 88.6747 49.5375 81.5727 35.1301 85.8522Z" fill="black"/>
<path d="M29.3963 138.901L31.6086 136.66L37.8616 142.851L35.6493 145.091L29.8973 139.398L29.3963 138.901Z" fill="#53526B"/>
<path d="M14.8938 124.54C14.8938 124.54 24.5731 125.363 33.5869 135.522L29.8315 139.325L14.8938 124.54Z" fill="#DFE6F5"/>
<path d="M43.9244 142.697C43.9244 142.697 34.6181 139.3 33.7039 138.487C32.7897 137.674 27.4071 142.4 33.9709 148.825C33.9709 148.825 42.0156 151.113 44.1438 148.825C46.2721 146.537 43.9244 142.697 43.9244 142.697Z" fill="#FDC2CC"/>
<path d="M315.655 187.109H313.764V229.735H315.655V187.109Z" fill="#535461"/>
<path d="M327.543 229.603L327.422 231.525L327.258 234.234L327.188 235.362L327.02 238.074L326.947 239.206L326.779 241.915L324.874 272.735C324.791 274.061 324.206 275.306 323.239 276.216C322.271 277.126 320.994 277.633 319.666 277.633H309.757C308.43 277.632 307.153 277.126 306.186 276.216C305.219 275.306 304.635 274.061 304.553 272.735L302.644 241.915L302.476 239.206L302.407 238.074L302.235 235.362L302.169 234.234L302.001 231.525L301.88 229.603C301.857 229.235 301.91 228.866 302.035 228.519C302.16 228.171 302.355 227.854 302.607 227.585C302.86 227.316 303.165 227.101 303.503 226.955C303.842 226.809 304.206 226.733 304.575 226.733H324.852C325.22 226.734 325.584 226.809 325.922 226.956C326.26 227.103 326.565 227.317 326.817 227.586C327.069 227.855 327.264 228.173 327.388 228.519C327.513 228.866 327.566 229.235 327.543 229.603Z" fill="#65617D"/>
<path d="M327.422 231.525L327.254 234.234H302.165L301.997 231.525H327.422Z" fill="#9D9CB5"/>
<path d="M327.185 235.362L327.016 238.074H302.403L302.235 235.362H327.185Z" fill="#9D9CB5"/>
<path d="M326.943 239.206L326.779 241.915H302.641L302.472 239.206H326.943Z" fill="#9D9CB5"/>
<path d="M299.108 203.081C310.122 211.058 314.708 223.534 314.708 223.534C314.708 223.534 301.438 223.08 290.424 215.114C279.41 207.148 274.824 194.661 274.824 194.661C274.824 194.661 288.094 195.108 299.108 203.081Z" fill="#FF8822"/>
<path d="M274.824 194.661C274.824 194.661 288.599 202.316 293.016 208.653C297.434 214.99 314.708 223.545 314.708 223.545" stroke="#535461" stroke-width="2" stroke-miterlimit="10"/>
<path d="M306.217 187.014C312.21 191.356 314.708 198.146 314.708 198.146C314.708 198.146 307.486 197.897 301.489 193.559C295.492 189.221 292.998 182.427 292.998 182.427C292.998 182.427 300.224 182.672 306.217 187.014Z" fill="#FF8822"/>
<path d="M292.998 182.427C292.998 182.427 300.483 186.608 302.9 190.041C305.317 193.475 314.708 198.146 314.708 198.146" stroke="#535461" stroke-width="2" stroke-miterlimit="10"/>
<path d="M323.418 197.802C316.532 205.376 315.077 215.279 315.077 215.279C315.077 215.279 324.786 212.892 331.671 205.318C338.557 197.744 340.012 187.841 340.012 187.841C340.012 187.841 330.304 190.224 323.418 197.802Z" fill="#FF8822"/>
<path d="M340.012 187.841C340.012 187.841 331.042 195.606 328.764 200.958C326.486 206.31 315.077 215.279 315.077 215.279" stroke="#535461" stroke-width="2" stroke-miterlimit="10"/>
</g>
<defs>
<linearGradient id="paint0_linear" x1="49.1389" y1="298.071" x2="49.1389" y2="65.4068" gradientUnits="userSpaceOnUse">
<stop stop-color="#808080" stop-opacity="0.25"/>
<stop offset="0.54" stop-color="#808080" stop-opacity="0.12"/>
<stop offset="1" stop-color="#808080" stop-opacity="0.1"/>
</linearGradient>
<clipPath id="clip0">
<rect width="345" height="300" fill="white"/>
</clipPath>
</defs>
</svg>
