<svg width="24" height="24" viewBox="0 0 24 24" fill="none" xmlns="http://www.w3.org/2000/svg">
<path fill-rule="evenodd" clip-rule="evenodd" d="M11.8071 15.3429L16.7655 10.3845C17.1159 10.0341 17.1159 9.46592 16.7655 9.1155C16.415 8.76498 15.8468 8.76473 15.4959 9.11493L11.1 13.503L8.95453 11.3645C8.60337 11.0144 8.03509 11.0149 7.6845 11.3655C7.33408 11.7159 7.33408 12.2841 7.6845 12.6345L10.3929 15.3429C10.7834 15.7334 11.4166 15.7334 11.8071 15.3429Z" fill="#FF8822"/>
<path fill-rule="evenodd" clip-rule="evenodd" d="M12 21C7.02944 21 3 16.9706 3 12C3 7.02944 7.02944 3 12 3C16.9706 3 21 7.02944 21 12C21 16.9706 16.9706 21 12 21ZM12 19.2C15.9764 19.2 19.2 15.9764 19.2 12C19.2 8.02355 15.9764 4.8 12 4.8C8.02355 4.8 4.8 8.02355 4.8 12C4.8 15.9764 8.02355 19.2 12 19.2Z" fill="#FF8822"/>
</svg>
